<svg width="20" height="18" viewBox="0 0 20 18" fill="none" xmlns="http://www.w3.org/2000/svg">
<path d="M2.31798 2.31804C1.90011 2.7359 1.56864 3.23198 1.34249 3.77795C1.11634 4.32392 0.999939 4.90909 0.999939 5.50004C0.999939 6.09099 1.11634 6.67616 1.34249 7.22213C1.56864 7.7681 1.90011 8.26417 2.31798 8.68204L9.99998 16.364L17.682 8.68204C18.5259 7.83812 19 6.69352 19 5.50004C19 4.30656 18.5259 3.16196 17.682 2.31804C16.8381 1.47412 15.6935 1.00001 14.5 1.00001C13.3065 1.00001 12.1619 1.47412 11.318 2.31804L9.99998 3.63604L8.68198 2.31804C8.26411 1.90017 7.76803 1.5687 7.22207 1.34255C6.6761 1.1164 6.09093 1 5.49998 1C4.90903 1 4.32386 1.1164 3.77789 1.34255C3.23192 1.5687 2.73584 1.90017 2.31798 2.31804V2.31804Z" stroke="#4A5568" stroke-width="2" stroke-linecap="round" stroke-linejoin="round"/>
</svg>
