<svg width="172" height="48" viewBox="0 0 172 48" fill="none" xmlns="http://www.w3.org/2000/svg">
<rect width="48" height="48" rx="8.72727" fill="url(#paint0_linear)"/>
<path d="M21.4808 32.1375V28.1642H23.6131L26.0217 32.8278C27.0035 34.7455 27.8472 35.3744 29.458 35.3744C31.2376 35.3744 32.4802 34.2085 32.4802 32.521C32.4802 31.9074 32.3114 31.2477 31.9739 30.6954L29.5961 26.6455C31.8052 25.5102 33.0171 23.4699 33.0171 20.8926C33.0171 16.7966 30.0103 14.296 25.0859 14.296H19.333C16.6944 14.296 15.4058 15.692 15.4058 18.5148V32.1375C15.4058 34.2085 16.5256 35.3898 18.4893 35.3898C20.4222 35.3898 21.4808 34.2239 21.4808 32.1375ZM21.4808 24.0682V19.0057H24.2421C25.9756 19.0057 27.0495 19.8648 27.0495 21.4756C27.0495 23.1324 25.9603 24.0682 24.2881 24.0682H21.4808Z" fill="white"/>
<path d="M67.9297 31.4062V27.0469H70.8359L73.1914 31.6875C73.7188 32.7188 74.1641 33.0703 74.9961 33.0703C75.8984 33.0703 76.5664 32.4609 76.5664 31.6055C76.5664 31.2656 76.4609 30.8672 76.2852 30.5508L73.9648 26.2969C75.7461 25.5469 76.7891 23.9297 76.7891 21.9023C76.7891 18.8789 74.668 17.0039 71.2461 17.0039H67.1562C65.4922 17.0039 64.7656 17.7539 64.7656 19.418V31.4062C64.7656 32.4844 65.3516 33.1172 66.3594 33.1172C67.3555 33.1172 67.9297 32.4844 67.9297 31.4062ZM67.9297 24.6797V19.5938H70.8242C72.5703 19.5938 73.6133 20.5195 73.6133 22.1484C73.6133 23.7891 72.582 24.6797 70.7891 24.6797H67.9297Z" fill="#1A202C"/>
<path d="M86.1992 31.418H86.3516V31.8516C86.4453 32.6602 86.9844 33.1172 87.8047 33.1172C88.7656 33.1172 89.3047 32.5195 89.3047 31.4648V24.668C89.3047 21.9141 87.4766 20.3672 84.2188 20.3672C82.8594 20.3672 81.8164 20.6016 81.0312 21.0117C79.9414 21.5625 79.4375 22.3008 79.4375 23.0273C79.4375 23.6602 79.8594 24.1172 80.5391 24.1172C81.043 24.1172 81.3711 23.9883 81.7227 23.707C82.4141 23.0859 83.082 22.7344 84.0195 22.7344C85.4375 22.7344 86.2227 23.3906 86.2227 24.6445V25.6641H83.2695C80.4453 25.6641 78.7461 27.082 78.7461 29.3789C78.7461 31.6406 80.3867 33.1641 82.8125 33.1641C84.3359 33.1641 85.5664 32.5312 86.1992 31.418ZM81.8164 29.1914C81.8164 28.1719 82.5664 27.5625 83.832 27.5625H86.2227V28.8516C86.2227 30.0234 85.1797 30.9375 83.8438 30.9375C82.6367 30.9375 81.8164 30.2227 81.8164 29.1914Z" fill="#1A202C"/>
<path d="M103.215 31.4297V24.668C103.215 21.9375 101.715 20.3672 99.0664 20.3672C97.2383 20.3672 95.8438 21.2812 95.3633 22.7578H95.2109V21.9961C95.1758 21 94.6367 20.4492 93.7109 20.4492C92.7734 20.4492 92.1875 21.082 92.1875 22.1016V31.418C92.1875 32.5078 92.75 33.1172 93.7344 33.1172C94.7188 33.1172 95.2812 32.5078 95.2812 31.418V26.0859C95.2812 24.1523 96.2891 22.9688 97.8945 22.9688C99.3242 22.9688 100.133 23.8828 100.133 25.5117V31.418C100.133 32.5078 100.684 33.1172 101.68 33.1172C102.664 33.1172 103.215 32.5195 103.215 31.4297Z" fill="#1A202C"/>
<path d="M113.984 31.0195H114.137V31.6055C114.195 32.5664 114.746 33.1172 115.648 33.1172C116.633 33.1172 117.172 32.5078 117.172 31.418V17.7773C117.172 16.6875 116.609 16.0664 115.625 16.0664C114.629 16.0664 114.078 16.6875 114.078 17.7773V22.418H113.926C113.445 21.1406 112.109 20.3672 110.375 20.3672C107.504 20.3672 105.699 22.4531 105.699 25.8164V27.7148C105.699 31.0664 107.492 33.1641 110.34 33.1641C112.121 33.1641 113.586 32.2969 113.984 31.0195ZM108.875 27.3984V26.1445C108.875 24.082 109.812 22.8398 111.406 22.8398C112.988 22.8398 114.078 24.0703 114.078 25.875V27.5273C114.078 29.4844 113.059 30.7031 111.453 30.7031C109.824 30.7031 108.875 29.4727 108.875 27.3984Z" fill="#1A202C"/>
<path d="M125.504 20.2969C122.105 20.2969 119.762 22.4414 119.762 26.0273V27.4922C119.762 31.1719 122.105 33.2695 125.504 33.2695C128.891 33.2695 131.234 31.1719 131.234 27.4805V26.0156C131.234 22.4414 128.891 20.2969 125.504 20.2969ZM125.504 22.6992C127.109 22.6992 128.059 23.9883 128.059 26.0859V27.4688C128.059 29.5898 127.109 30.8672 125.504 30.8672C123.922 30.8672 122.938 29.5898 122.938 27.4688V26.0859C122.938 23.9883 123.922 22.6992 125.504 22.6992Z" fill="#1A202C"/>
<path d="M151.625 31.418V24.3164C151.625 21.8555 150.125 20.3672 147.617 20.3672C145.824 20.3672 144.418 21.2695 143.879 22.7109H143.738C143.328 21.2578 142.062 20.3672 140.316 20.3672C138.629 20.3672 137.328 21.2344 136.918 22.6289H136.766V22.043C136.719 21.0469 136.168 20.4492 135.266 20.4492C134.328 20.4492 133.742 21.082 133.742 22.1133V31.418C133.742 32.5195 134.305 33.1172 135.289 33.1172C136.273 33.1172 136.836 32.5195 136.836 31.418V25.4062C136.836 23.8945 137.715 22.9219 139.027 22.9219C140.363 22.9219 141.195 23.8242 141.195 25.3008V31.418C141.195 32.5195 141.723 33.1172 142.684 33.1172C143.656 33.1172 144.184 32.5195 144.184 31.418V25.418C144.184 23.918 145.086 22.9219 146.41 22.9219C147.746 22.9219 148.543 23.7656 148.543 25.2422V31.418C148.543 32.5195 149.094 33.1172 150.078 33.1172C151.062 33.1172 151.625 32.5195 151.625 31.418Z" fill="#1A202C"/>
<path d="M156.277 33.1172C157.227 33.1172 157.824 32.543 157.824 31.418V17.7773C157.824 16.6523 157.227 16.0664 156.277 16.0664C155.316 16.0664 154.73 16.6523 154.73 17.7773V31.418C154.73 32.543 155.316 33.1172 156.277 33.1172Z" fill="#1A202C"/>
<path d="M160.426 36.0703C160.426 36.3984 160.543 36.6797 160.766 36.9023C161.129 37.2539 161.762 37.4414 162.57 37.4414C165.066 37.4414 166.508 36.293 167.48 33.5039L171.219 22.7812C171.348 22.418 171.395 22.1719 171.395 21.9375C171.395 21.1055 170.773 20.4961 169.93 20.4961C169.121 20.4961 168.605 20.9766 168.348 21.9727L165.91 30.4453H165.781L163.367 21.9727C163.121 20.9766 162.594 20.4961 161.762 20.4961C160.883 20.4961 160.238 21.1172 160.238 21.9492C160.238 22.1719 160.273 22.4414 160.391 22.7812L164.047 33.1523C164.047 33.2344 163.93 33.75 163.895 33.8203C163.637 34.6172 163.051 35.1328 162.348 35.1328C161.996 35.1328 161.785 35.0742 161.539 35.0742C160.871 35.0742 160.426 35.4961 160.426 36.0703Z" fill="#1A202C"/>
<defs>
<linearGradient id="paint0_linear" x1="24" y1="0" x2="24" y2="48" gradientUnits="userSpaceOnUse">
<stop stop-color="#AD85FF"/>
<stop offset="1" stop-color="#7E7AEA"/>
</linearGradient>
</defs>
</svg>
