<svg xmlns="http://www.w3.org/2000/svg" width="172" height="48" viewBox="0 0 172 48" fill="none">
<rect width="48" height="48" rx="8.72727" fill="url(#paint0_linear)"/>
<path d="M21.4808 32.1375V28.1642H23.6131L26.0217 32.8278C27.0035 34.7455 27.8472 35.3744 29.458 35.3744C31.2376 35.3744 32.4802 34.2085 32.4802 32.521C32.4802 31.9074 32.3114 31.2477 31.9739 30.6954L29.5961 26.6455C31.8052 25.5102 33.0171 23.4699 33.0171 20.8926C33.0171 16.7966 30.0103 14.296 25.0859 14.296H19.333C16.6944 14.296 15.4058 15.692 15.4058 18.5148V32.1375C15.4058 34.2085 16.5256 35.3898 18.4893 35.3898C20.4222 35.3898 21.4808 34.2239 21.4808 32.1375ZM21.4808 24.0682V19.0057H24.2421C25.9756 19.0057 27.0495 19.8648 27.0495 21.4756C27.0495 23.1324 25.9603 24.0682 24.2881 24.0682H21.4808Z" fill="white"/>








<defs>
<linearGradient id="paint0_linear" x1="24" y1="0" x2="24" y2="48" gradientUnits="userSpaceOnUse">
<stop stop-color="#AD85FF"/>
<stop offset="1" stop-color="#7E7AEA"/>
</linearGradient>
</defs>
</svg>