<svg width="173" height="142" viewBox="0 0 173 142" fill="none" xmlns="http://www.w3.org/2000/svg">
<path d="M11.6445 125.609V119.07H16.0039L19.5371 126.031C20.3281 127.578 20.9961 128.105 22.2441 128.105C23.5977 128.105 24.5996 127.191 24.5996 125.908C24.5996 125.398 24.4414 124.801 24.1777 124.326L20.6973 117.945C23.3691 116.82 24.9336 114.395 24.9336 111.354C24.9336 106.818 21.752 104.006 16.6191 104.006H10.4844C7.98828 104.006 6.89844 105.131 6.89844 107.627V125.609C6.89844 127.227 7.77734 128.176 9.28906 128.176C10.7832 128.176 11.6445 127.227 11.6445 125.609ZM11.6445 115.52V107.891H15.9863C18.6055 107.891 20.1699 109.279 20.1699 111.723C20.1699 114.184 18.623 115.52 15.9336 115.52H11.6445Z" fill="#1A202C"/>
<path d="M39.0488 125.627H39.2773V126.277C39.418 127.49 40.2266 128.176 41.457 128.176C42.8984 128.176 43.707 127.279 43.707 125.697V115.502C43.707 111.371 40.9648 109.051 36.0781 109.051C34.0391 109.051 32.4746 109.402 31.2969 110.018C29.6621 110.844 28.9062 111.951 28.9062 113.041C28.9062 113.99 29.5391 114.676 30.5586 114.676C31.3145 114.676 31.8066 114.482 32.334 114.061C33.3711 113.129 34.373 112.602 35.7793 112.602C37.9062 112.602 39.084 113.586 39.084 115.467V116.996H34.6543C30.418 116.996 27.8691 119.123 27.8691 122.568C27.8691 125.961 30.3301 128.246 33.9688 128.246C36.2539 128.246 38.0996 127.297 39.0488 125.627ZM32.4746 122.287C32.4746 120.758 33.5996 119.844 35.498 119.844H39.084V121.777C39.084 123.535 37.5195 124.906 35.5156 124.906C33.7051 124.906 32.4746 123.834 32.4746 122.287Z" fill="#1A202C"/>
<path d="M64.5723 125.645V115.502C64.5723 111.406 62.3223 109.051 58.3496 109.051C55.6074 109.051 53.5156 110.422 52.7949 112.637H52.5664V111.494C52.5137 110 51.7051 109.174 50.3164 109.174C48.9102 109.174 48.0312 110.123 48.0312 111.652V125.627C48.0312 127.262 48.875 128.176 50.3516 128.176C51.8281 128.176 52.6719 127.262 52.6719 125.627V117.629C52.6719 114.729 54.1836 112.953 56.5918 112.953C58.7363 112.953 59.9492 114.324 59.9492 116.768V125.627C59.9492 127.262 60.7754 128.176 62.2695 128.176C63.7461 128.176 64.5723 127.279 64.5723 125.645Z" fill="#1A202C"/>
<path d="M80.7266 125.029H80.9551V125.908C81.043 127.35 81.8691 128.176 83.2227 128.176C84.6992 128.176 85.5078 127.262 85.5078 125.627V105.166C85.5078 103.531 84.6641 102.6 83.1875 102.6C81.6934 102.6 80.8672 103.531 80.8672 105.166V112.127H80.6387C79.918 110.211 77.9141 109.051 75.3125 109.051C71.0059 109.051 68.2988 112.18 68.2988 117.225V120.072C68.2988 125.1 70.9883 128.246 75.2598 128.246C77.9316 128.246 80.1289 126.945 80.7266 125.029ZM73.0625 119.598V117.717C73.0625 114.623 74.4688 112.76 76.8594 112.76C79.2324 112.76 80.8672 114.605 80.8672 117.312V119.791C80.8672 122.727 79.3379 124.555 76.9297 124.555C74.4863 124.555 73.0625 122.709 73.0625 119.598Z" fill="#1A202C"/>
<path d="M98.0059 108.945C92.9082 108.945 89.3926 112.162 89.3926 117.541V119.738C89.3926 125.258 92.9082 128.404 98.0059 128.404C103.086 128.404 106.602 125.258 106.602 119.721V117.523C106.602 112.162 103.086 108.945 98.0059 108.945ZM98.0059 112.549C100.414 112.549 101.838 114.482 101.838 117.629V119.703C101.838 122.885 100.414 124.801 98.0059 124.801C95.6328 124.801 94.1562 122.885 94.1562 119.703V117.629C94.1562 114.482 95.6328 112.549 98.0059 112.549Z" fill="#1A202C"/>
<path d="M137.188 125.627V114.975C137.188 111.283 134.938 109.051 131.176 109.051C128.486 109.051 126.377 110.404 125.568 112.566H125.357C124.742 110.387 122.844 109.051 120.225 109.051C117.693 109.051 115.742 110.352 115.127 112.443H114.898V111.564C114.828 110.07 114.002 109.174 112.648 109.174C111.242 109.174 110.363 110.123 110.363 111.67V125.627C110.363 127.279 111.207 128.176 112.684 128.176C114.16 128.176 115.004 127.279 115.004 125.627V116.609C115.004 114.342 116.322 112.883 118.291 112.883C120.295 112.883 121.543 114.236 121.543 116.451V125.627C121.543 127.279 122.334 128.176 123.775 128.176C125.234 128.176 126.025 127.279 126.025 125.627V116.627C126.025 114.377 127.379 112.883 129.365 112.883C131.369 112.883 132.564 114.148 132.564 116.363V125.627C132.564 127.279 133.391 128.176 134.867 128.176C136.344 128.176 137.188 127.279 137.188 125.627Z" fill="#1A202C"/>
<path d="M144.166 128.176C145.59 128.176 146.486 127.314 146.486 125.627V105.166C146.486 103.479 145.59 102.6 144.166 102.6C142.725 102.6 141.846 103.479 141.846 105.166V125.627C141.846 127.314 142.725 128.176 144.166 128.176Z" fill="#1A202C"/>
<path d="M150.389 132.605C150.389 133.098 150.564 133.52 150.898 133.854C151.443 134.381 152.393 134.662 153.605 134.662C157.35 134.662 159.512 132.939 160.971 128.756L166.578 112.672C166.771 112.127 166.842 111.758 166.842 111.406C166.842 110.158 165.91 109.244 164.645 109.244C163.432 109.244 162.658 109.965 162.271 111.459L158.615 124.168H158.422L154.801 111.459C154.432 109.965 153.641 109.244 152.393 109.244C151.074 109.244 150.107 110.176 150.107 111.424C150.107 111.758 150.16 112.162 150.336 112.672L155.82 128.229C155.82 128.352 155.645 129.125 155.592 129.23C155.205 130.426 154.326 131.199 153.271 131.199C152.744 131.199 152.428 131.111 152.059 131.111C151.057 131.111 150.389 131.744 150.389 132.605Z" fill="#1A202C"/>
<rect x="46" width="80" height="80" rx="14.5455" fill="url(#paint0_linear)"/>
<path d="M81.8013 53.5625V46.9403H85.3552L89.3694 54.713C91.0058 57.909 92.4121 58.9573 95.0967 58.9573C98.0626 58.9573 100.134 57.0142 100.134 54.2017C100.134 53.1789 99.8524 52.0795 99.2899 51.159L95.3268 44.409C99.0087 42.517 101.029 39.1164 101.029 34.821C101.029 27.9943 96.0172 23.8267 87.8098 23.8267H78.2217C73.824 23.8267 71.6763 26.1534 71.6763 30.8579V53.5625C71.6763 57.0142 73.5427 58.9829 76.8155 58.9829C80.0371 58.9829 81.8013 57.0397 81.8013 53.5625ZM81.8013 40.1136V31.6761H86.4035C89.2927 31.6761 91.0825 33.1079 91.0825 35.7926C91.0825 38.5539 89.2672 40.1136 86.4802 40.1136H81.8013Z" fill="white"/>
<defs>
<linearGradient id="paint0_linear" x1="86" y1="0" x2="86" y2="80" gradientUnits="userSpaceOnUse">
<stop stop-color="#AD85FF"/>
<stop offset="1" stop-color="#7E7AEA"/>
</linearGradient>
</defs>
</svg>
