<svg width="735" height="759" viewBox="0 0 735 759" fill="none" xmlns="http://www.w3.org/2000/svg">
<rect width="735" height="759" fill="white"/>
<path fill-rule="evenodd" clip-rule="evenodd" d="M188.585 138.942C187 142.053 187 146.127 187 154.273V187.727C187 195.873 187 199.947 188.585 203.058C189.98 205.795 192.205 208.02 194.942 209.415C198.053 211 202.127 211 210.273 211H243.727C251.873 211 255.947 211 259.058 209.415C261.795 208.02 264.02 205.795 265.415 203.058C267 199.947 267 195.873 267 187.727V154.273C267 146.127 267 142.053 265.415 138.942C264.02 136.205 261.795 133.98 259.058 132.585C255.947 131 251.873 131 243.727 131H210.273C202.127 131 198.053 131 194.942 132.585C192.205 133.98 189.98 136.205 188.585 138.942ZM222.801 177.94V184.562C222.801 188.04 221.037 189.983 217.815 189.983C214.543 189.983 212.676 188.014 212.676 184.562V161.858C212.676 157.153 214.824 154.827 219.222 154.827H228.81C237.017 154.827 242.028 158.994 242.028 165.821C242.028 170.116 240.009 173.517 236.327 175.409L240.29 182.159C240.852 183.08 241.134 184.179 241.134 185.202C241.134 188.014 239.062 189.957 236.097 189.957C233.412 189.957 232.006 188.909 230.369 185.713L226.355 177.94H222.801ZM222.801 162.676V171.114H227.48C230.267 171.114 232.082 169.554 232.082 166.793C232.082 164.108 230.293 162.676 227.403 162.676H222.801Z" fill="url(#paint0_linear)"/>
<path d="M429.645 225.609V219.07H434.004L437.537 226.031C438.328 227.578 438.996 228.105 440.244 228.105C441.598 228.105 442.6 227.191 442.6 225.908C442.6 225.398 442.441 224.801 442.178 224.326L438.697 217.945C441.369 216.82 442.934 214.395 442.934 211.354C442.934 206.818 439.752 204.006 434.619 204.006H428.484C425.988 204.006 424.898 205.131 424.898 207.627V225.609C424.898 227.227 425.777 228.176 427.289 228.176C428.783 228.176 429.645 227.227 429.645 225.609ZM429.645 215.52V207.891H433.986C436.605 207.891 438.17 209.279 438.17 211.723C438.17 214.184 436.623 215.52 433.934 215.52H429.645Z" fill="#1A202C"/>
<path d="M457.049 225.627H457.277V226.277C457.418 227.49 458.227 228.176 459.457 228.176C460.898 228.176 461.707 227.279 461.707 225.697V215.502C461.707 211.371 458.965 209.051 454.078 209.051C452.039 209.051 450.475 209.402 449.297 210.018C447.662 210.844 446.906 211.951 446.906 213.041C446.906 213.99 447.539 214.676 448.559 214.676C449.314 214.676 449.807 214.482 450.334 214.061C451.371 213.129 452.373 212.602 453.779 212.602C455.906 212.602 457.084 213.586 457.084 215.467V216.996H452.654C448.418 216.996 445.869 219.123 445.869 222.568C445.869 225.961 448.33 228.246 451.969 228.246C454.254 228.246 456.1 227.297 457.049 225.627ZM450.475 222.287C450.475 220.758 451.6 219.844 453.498 219.844H457.084V221.777C457.084 223.535 455.52 224.906 453.516 224.906C451.705 224.906 450.475 223.834 450.475 222.287Z" fill="#1A202C"/>
<path d="M482.572 225.645V215.502C482.572 211.406 480.322 209.051 476.35 209.051C473.607 209.051 471.516 210.422 470.795 212.637H470.566V211.494C470.514 210 469.705 209.174 468.316 209.174C466.91 209.174 466.031 210.123 466.031 211.652V225.627C466.031 227.262 466.875 228.176 468.352 228.176C469.828 228.176 470.672 227.262 470.672 225.627V217.629C470.672 214.729 472.184 212.953 474.592 212.953C476.736 212.953 477.949 214.324 477.949 216.768V225.627C477.949 227.262 478.775 228.176 480.27 228.176C481.746 228.176 482.572 227.279 482.572 225.645Z" fill="#1A202C"/>
<path d="M498.727 225.029H498.955V225.908C499.043 227.35 499.869 228.176 501.223 228.176C502.699 228.176 503.508 227.262 503.508 225.627V205.166C503.508 203.531 502.664 202.6 501.188 202.6C499.693 202.6 498.867 203.531 498.867 205.166V212.127H498.639C497.918 210.211 495.914 209.051 493.312 209.051C489.006 209.051 486.299 212.18 486.299 217.225V220.072C486.299 225.1 488.988 228.246 493.26 228.246C495.932 228.246 498.129 226.945 498.727 225.029ZM491.062 219.598V217.717C491.062 214.623 492.469 212.76 494.859 212.76C497.232 212.76 498.867 214.605 498.867 217.312V219.791C498.867 222.727 497.338 224.555 494.93 224.555C492.486 224.555 491.062 222.709 491.062 219.598Z" fill="#1A202C"/>
<path d="M516.006 208.945C510.908 208.945 507.393 212.162 507.393 217.541V219.738C507.393 225.258 510.908 228.404 516.006 228.404C521.086 228.404 524.602 225.258 524.602 219.721V217.523C524.602 212.162 521.086 208.945 516.006 208.945ZM516.006 212.549C518.414 212.549 519.838 214.482 519.838 217.629V219.703C519.838 222.885 518.414 224.801 516.006 224.801C513.633 224.801 512.156 222.885 512.156 219.703V217.629C512.156 214.482 513.633 212.549 516.006 212.549Z" fill="#1A202C"/>
<path d="M555.188 225.627V214.975C555.188 211.283 552.938 209.051 549.176 209.051C546.486 209.051 544.377 210.404 543.568 212.566H543.357C542.742 210.387 540.844 209.051 538.225 209.051C535.693 209.051 533.742 210.352 533.127 212.443H532.898V211.564C532.828 210.07 532.002 209.174 530.648 209.174C529.242 209.174 528.363 210.123 528.363 211.67V225.627C528.363 227.279 529.207 228.176 530.684 228.176C532.16 228.176 533.004 227.279 533.004 225.627V216.609C533.004 214.342 534.322 212.883 536.291 212.883C538.295 212.883 539.543 214.236 539.543 216.451V225.627C539.543 227.279 540.334 228.176 541.775 228.176C543.234 228.176 544.025 227.279 544.025 225.627V216.627C544.025 214.377 545.379 212.883 547.365 212.883C549.369 212.883 550.564 214.148 550.564 216.363V225.627C550.564 227.279 551.391 228.176 552.867 228.176C554.344 228.176 555.188 227.279 555.188 225.627Z" fill="#1A202C"/>
<path d="M562.166 228.176C563.59 228.176 564.486 227.314 564.486 225.627V205.166C564.486 203.479 563.59 202.6 562.166 202.6C560.725 202.6 559.846 203.479 559.846 205.166V225.627C559.846 227.314 560.725 228.176 562.166 228.176Z" fill="#1A202C"/>
<path d="M568.389 232.605C568.389 233.098 568.564 233.52 568.898 233.854C569.443 234.381 570.393 234.662 571.605 234.662C575.35 234.662 577.512 232.939 578.971 228.756L584.578 212.672C584.771 212.127 584.842 211.758 584.842 211.406C584.842 210.158 583.91 209.244 582.645 209.244C581.432 209.244 580.658 209.965 580.271 211.459L576.615 224.168H576.422L572.801 211.459C572.432 209.965 571.641 209.244 570.393 209.244C569.074 209.244 568.107 210.176 568.107 211.424C568.107 211.758 568.16 212.162 568.336 212.672L573.82 228.229C573.82 228.352 573.645 229.125 573.592 229.23C573.205 230.426 572.326 231.199 571.271 231.199C570.744 231.199 570.428 231.111 570.059 231.111C569.057 231.111 568.389 231.744 568.389 232.605Z" fill="#1A202C"/>
<rect x="464" y="100" width="80" height="80" rx="14.5455" fill="url(#paint1_linear)"/>
<path d="M499.801 153.562V146.94H503.355L507.369 154.713C509.006 157.909 510.412 158.957 513.097 158.957C516.063 158.957 518.134 157.014 518.134 154.202C518.134 153.179 517.852 152.079 517.29 151.159L513.327 144.409C517.009 142.517 519.029 139.116 519.029 134.821C519.029 127.994 514.017 123.827 505.81 123.827H496.222C491.824 123.827 489.676 126.153 489.676 130.858V153.562C489.676 157.014 491.543 158.983 494.815 158.983C498.037 158.983 499.801 157.04 499.801 153.562ZM499.801 140.114V131.676H504.404C507.293 131.676 509.083 133.108 509.083 135.793C509.083 138.554 507.267 140.114 504.48 140.114H499.801Z" fill="white"/>
<path d="M177.93 426.406V422.047H180.836L183.191 426.688C183.719 427.719 184.164 428.07 184.996 428.07C185.898 428.07 186.566 427.461 186.566 426.605C186.566 426.266 186.461 425.867 186.285 425.551L183.965 421.297C185.746 420.547 186.789 418.93 186.789 416.902C186.789 413.879 184.668 412.004 181.246 412.004H177.156C175.492 412.004 174.766 412.754 174.766 414.418V426.406C174.766 427.484 175.352 428.117 176.359 428.117C177.355 428.117 177.93 427.484 177.93 426.406ZM177.93 419.68V414.594H180.824C182.57 414.594 183.613 415.52 183.613 417.148C183.613 418.789 182.582 419.68 180.789 419.68H177.93Z" fill="#1A202C"/>
<path d="M196.199 426.418H196.352V426.852C196.445 427.66 196.984 428.117 197.805 428.117C198.766 428.117 199.305 427.52 199.305 426.465V419.668C199.305 416.914 197.477 415.367 194.219 415.367C192.859 415.367 191.816 415.602 191.031 416.012C189.941 416.562 189.438 417.301 189.438 418.027C189.438 418.66 189.859 419.117 190.539 419.117C191.043 419.117 191.371 418.988 191.723 418.707C192.414 418.086 193.082 417.734 194.02 417.734C195.438 417.734 196.223 418.391 196.223 419.645V420.664H193.27C190.445 420.664 188.746 422.082 188.746 424.379C188.746 426.641 190.387 428.164 192.812 428.164C194.336 428.164 195.566 427.531 196.199 426.418ZM191.816 424.191C191.816 423.172 192.566 422.562 193.832 422.562H196.223V423.852C196.223 425.023 195.18 425.938 193.844 425.938C192.637 425.938 191.816 425.223 191.816 424.191Z" fill="#1A202C"/>
<path d="M213.215 426.43V419.668C213.215 416.938 211.715 415.367 209.066 415.367C207.238 415.367 205.844 416.281 205.363 417.758H205.211V416.996C205.176 416 204.637 415.449 203.711 415.449C202.773 415.449 202.188 416.082 202.188 417.102V426.418C202.188 427.508 202.75 428.117 203.734 428.117C204.719 428.117 205.281 427.508 205.281 426.418V421.086C205.281 419.152 206.289 417.969 207.895 417.969C209.324 417.969 210.133 418.883 210.133 420.512V426.418C210.133 427.508 210.684 428.117 211.68 428.117C212.664 428.117 213.215 427.52 213.215 426.43Z" fill="#1A202C"/>
<path d="M223.984 426.02H224.137V426.605C224.195 427.566 224.746 428.117 225.648 428.117C226.633 428.117 227.172 427.508 227.172 426.418V412.777C227.172 411.688 226.609 411.066 225.625 411.066C224.629 411.066 224.078 411.688 224.078 412.777V417.418H223.926C223.445 416.141 222.109 415.367 220.375 415.367C217.504 415.367 215.699 417.453 215.699 420.816V422.715C215.699 426.066 217.492 428.164 220.34 428.164C222.121 428.164 223.586 427.297 223.984 426.02ZM218.875 422.398V421.145C218.875 419.082 219.812 417.84 221.406 417.84C222.988 417.84 224.078 419.07 224.078 420.875V422.527C224.078 424.484 223.059 425.703 221.453 425.703C219.824 425.703 218.875 424.473 218.875 422.398Z" fill="#1A202C"/>
<path d="M235.504 415.297C232.105 415.297 229.762 417.441 229.762 421.027V422.492C229.762 426.172 232.105 428.27 235.504 428.27C238.891 428.27 241.234 426.172 241.234 422.48V421.016C241.234 417.441 238.891 415.297 235.504 415.297ZM235.504 417.699C237.109 417.699 238.059 418.988 238.059 421.086V422.469C238.059 424.59 237.109 425.867 235.504 425.867C233.922 425.867 232.938 424.59 232.938 422.469V421.086C232.938 418.988 233.922 417.699 235.504 417.699Z" fill="#1A202C"/>
<path d="M261.625 426.418V419.316C261.625 416.855 260.125 415.367 257.617 415.367C255.824 415.367 254.418 416.27 253.879 417.711H253.738C253.328 416.258 252.062 415.367 250.316 415.367C248.629 415.367 247.328 416.234 246.918 417.629H246.766V417.043C246.719 416.047 246.168 415.449 245.266 415.449C244.328 415.449 243.742 416.082 243.742 417.113V426.418C243.742 427.52 244.305 428.117 245.289 428.117C246.273 428.117 246.836 427.52 246.836 426.418V420.406C246.836 418.895 247.715 417.922 249.027 417.922C250.363 417.922 251.195 418.824 251.195 420.301V426.418C251.195 427.52 251.723 428.117 252.684 428.117C253.656 428.117 254.184 427.52 254.184 426.418V420.418C254.184 418.918 255.086 417.922 256.41 417.922C257.746 417.922 258.543 418.766 258.543 420.242V426.418C258.543 427.52 259.094 428.117 260.078 428.117C261.062 428.117 261.625 427.52 261.625 426.418Z" fill="#1A202C"/>
<path d="M266.277 428.117C267.227 428.117 267.824 427.543 267.824 426.418V412.777C267.824 411.652 267.227 411.066 266.277 411.066C265.316 411.066 264.73 411.652 264.73 412.777V426.418C264.73 427.543 265.316 428.117 266.277 428.117Z" fill="#1A202C"/>
<path d="M270.426 431.07C270.426 431.398 270.543 431.68 270.766 431.902C271.129 432.254 271.762 432.441 272.57 432.441C275.066 432.441 276.508 431.293 277.48 428.504L281.219 417.781C281.348 417.418 281.395 417.172 281.395 416.938C281.395 416.105 280.773 415.496 279.93 415.496C279.121 415.496 278.605 415.977 278.348 416.973L275.91 425.445H275.781L273.367 416.973C273.121 415.977 272.594 415.496 271.762 415.496C270.883 415.496 270.238 416.117 270.238 416.949C270.238 417.172 270.273 417.441 270.391 417.781L274.047 428.152C274.047 428.234 273.93 428.75 273.895 428.82C273.637 429.617 273.051 430.133 272.348 430.133C271.996 430.133 271.785 430.074 271.539 430.074C270.871 430.074 270.426 430.496 270.426 431.07Z" fill="#1A202C"/>
<rect x="203" y="348" width="48" height="48" rx="8.72727" fill="url(#paint2_linear)"/>
<path d="M224.481 380.137V376.164H226.613L229.022 380.828C230.003 382.745 230.847 383.374 232.458 383.374C234.238 383.374 235.48 382.209 235.48 380.521C235.48 379.907 235.311 379.248 234.974 378.695L232.596 374.645C234.805 373.51 236.017 371.47 236.017 368.893C236.017 364.797 233.01 362.296 228.086 362.296H222.333C219.694 362.296 218.406 363.692 218.406 366.515V380.137C218.406 382.209 219.526 383.39 221.489 383.39C223.422 383.39 224.481 382.224 224.481 380.137ZM224.481 372.068V367.006H227.242C228.976 367.006 230.05 367.865 230.05 369.476C230.05 371.132 228.96 372.068 227.288 372.068H224.481Z" fill="white"/>
<rect x="419" y="359" width="48" height="48" rx="8.72727" fill="url(#paint3_linear)"/>
<path d="M440.481 391.137V387.164H442.613L445.022 391.828C446.003 393.745 446.847 394.374 448.458 394.374C450.238 394.374 451.48 393.209 451.48 391.521C451.48 390.907 451.311 390.248 450.974 389.695L448.596 385.645C450.805 384.51 452.017 382.47 452.017 379.893C452.017 375.797 449.01 373.296 444.086 373.296H438.333C435.694 373.296 434.406 374.692 434.406 377.515V391.137C434.406 393.209 435.526 394.39 437.489 394.39C439.422 394.39 440.481 393.224 440.481 391.137ZM440.481 383.068V378.006H443.242C444.976 378.006 446.05 378.865 446.05 380.476C446.05 382.132 444.96 383.068 443.288 383.068H440.481Z" fill="white"/>
<path d="M486.93 390.406V386.047H489.836L492.191 390.688C492.719 391.719 493.164 392.07 493.996 392.07C494.898 392.07 495.566 391.461 495.566 390.605C495.566 390.266 495.461 389.867 495.285 389.551L492.965 385.297C494.746 384.547 495.789 382.93 495.789 380.902C495.789 377.879 493.668 376.004 490.246 376.004H486.156C484.492 376.004 483.766 376.754 483.766 378.418V390.406C483.766 391.484 484.352 392.117 485.359 392.117C486.355 392.117 486.93 391.484 486.93 390.406ZM486.93 383.68V378.594H489.824C491.57 378.594 492.613 379.52 492.613 381.148C492.613 382.789 491.582 383.68 489.789 383.68H486.93Z" fill="#1A202C"/>
<path d="M505.199 390.418H505.352V390.852C505.445 391.66 505.984 392.117 506.805 392.117C507.766 392.117 508.305 391.52 508.305 390.465V383.668C508.305 380.914 506.477 379.367 503.219 379.367C501.859 379.367 500.816 379.602 500.031 380.012C498.941 380.562 498.438 381.301 498.438 382.027C498.438 382.66 498.859 383.117 499.539 383.117C500.043 383.117 500.371 382.988 500.723 382.707C501.414 382.086 502.082 381.734 503.02 381.734C504.438 381.734 505.223 382.391 505.223 383.645V384.664H502.27C499.445 384.664 497.746 386.082 497.746 388.379C497.746 390.641 499.387 392.164 501.812 392.164C503.336 392.164 504.566 391.531 505.199 390.418ZM500.816 388.191C500.816 387.172 501.566 386.562 502.832 386.562H505.223V387.852C505.223 389.023 504.18 389.938 502.844 389.938C501.637 389.938 500.816 389.223 500.816 388.191Z" fill="#1A202C"/>
<path d="M522.215 390.43V383.668C522.215 380.938 520.715 379.367 518.066 379.367C516.238 379.367 514.844 380.281 514.363 381.758H514.211V380.996C514.176 380 513.637 379.449 512.711 379.449C511.773 379.449 511.188 380.082 511.188 381.102V390.418C511.188 391.508 511.75 392.117 512.734 392.117C513.719 392.117 514.281 391.508 514.281 390.418V385.086C514.281 383.152 515.289 381.969 516.895 381.969C518.324 381.969 519.133 382.883 519.133 384.512V390.418C519.133 391.508 519.684 392.117 520.68 392.117C521.664 392.117 522.215 391.52 522.215 390.43Z" fill="#1A202C"/>
<path d="M532.984 390.02H533.137V390.605C533.195 391.566 533.746 392.117 534.648 392.117C535.633 392.117 536.172 391.508 536.172 390.418V376.777C536.172 375.688 535.609 375.066 534.625 375.066C533.629 375.066 533.078 375.688 533.078 376.777V381.418H532.926C532.445 380.141 531.109 379.367 529.375 379.367C526.504 379.367 524.699 381.453 524.699 384.816V386.715C524.699 390.066 526.492 392.164 529.34 392.164C531.121 392.164 532.586 391.297 532.984 390.02ZM527.875 386.398V385.145C527.875 383.082 528.812 381.84 530.406 381.84C531.988 381.84 533.078 383.07 533.078 384.875V386.527C533.078 388.484 532.059 389.703 530.453 389.703C528.824 389.703 527.875 388.473 527.875 386.398Z" fill="#1A202C"/>
<path d="M544.504 379.297C541.105 379.297 538.762 381.441 538.762 385.027V386.492C538.762 390.172 541.105 392.27 544.504 392.27C547.891 392.27 550.234 390.172 550.234 386.48V385.016C550.234 381.441 547.891 379.297 544.504 379.297ZM544.504 381.699C546.109 381.699 547.059 382.988 547.059 385.086V386.469C547.059 388.59 546.109 389.867 544.504 389.867C542.922 389.867 541.938 388.59 541.938 386.469V385.086C541.938 382.988 542.922 381.699 544.504 381.699Z" fill="#1A202C"/>
<path d="M570.625 390.418V383.316C570.625 380.855 569.125 379.367 566.617 379.367C564.824 379.367 563.418 380.27 562.879 381.711H562.738C562.328 380.258 561.062 379.367 559.316 379.367C557.629 379.367 556.328 380.234 555.918 381.629H555.766V381.043C555.719 380.047 555.168 379.449 554.266 379.449C553.328 379.449 552.742 380.082 552.742 381.113V390.418C552.742 391.52 553.305 392.117 554.289 392.117C555.273 392.117 555.836 391.52 555.836 390.418V384.406C555.836 382.895 556.715 381.922 558.027 381.922C559.363 381.922 560.195 382.824 560.195 384.301V390.418C560.195 391.52 560.723 392.117 561.684 392.117C562.656 392.117 563.184 391.52 563.184 390.418V384.418C563.184 382.918 564.086 381.922 565.41 381.922C566.746 381.922 567.543 382.766 567.543 384.242V390.418C567.543 391.52 568.094 392.117 569.078 392.117C570.062 392.117 570.625 391.52 570.625 390.418Z" fill="#1A202C"/>
<path d="M575.277 392.117C576.227 392.117 576.824 391.543 576.824 390.418V376.777C576.824 375.652 576.227 375.066 575.277 375.066C574.316 375.066 573.73 375.652 573.73 376.777V390.418C573.73 391.543 574.316 392.117 575.277 392.117Z" fill="#1A202C"/>
<path d="M579.426 395.07C579.426 395.398 579.543 395.68 579.766 395.902C580.129 396.254 580.762 396.441 581.57 396.441C584.066 396.441 585.508 395.293 586.48 392.504L590.219 381.781C590.348 381.418 590.395 381.172 590.395 380.938C590.395 380.105 589.773 379.496 588.93 379.496C588.121 379.496 587.605 379.977 587.348 380.973L584.91 389.445H584.781L582.367 380.973C582.121 379.977 581.594 379.496 580.762 379.496C579.883 379.496 579.238 380.117 579.238 380.949C579.238 381.172 579.273 381.441 579.391 381.781L583.047 392.152C583.047 392.234 582.93 392.75 582.895 392.82C582.637 393.617 582.051 394.133 581.348 394.133C580.996 394.133 580.785 394.074 580.539 394.074C579.871 394.074 579.426 394.496 579.426 395.07Z" fill="#1A202C"/>
<rect x="445" y="556" width="28" height="28" rx="5.09091" fill="url(#paint4_linear)"/>
<path d="M457.531 574.747V572.429H458.774L460.179 575.15C460.752 576.268 461.244 576.635 462.184 576.635C463.222 576.635 463.947 575.955 463.947 574.971C463.947 574.613 463.848 574.228 463.652 573.906L462.265 571.543C463.553 570.881 464.26 569.691 464.26 568.187C464.26 565.798 462.506 564.339 459.634 564.339H456.278C454.739 564.339 453.987 565.154 453.987 566.8V574.747C453.987 575.955 454.64 576.644 455.786 576.644C456.913 576.644 457.531 575.964 457.531 574.747ZM457.531 570.04V567.087H459.141C460.153 567.087 460.779 567.588 460.779 568.527C460.779 569.494 460.144 570.04 459.168 570.04H457.531Z" fill="white"/>
<path d="M486.822 575.805V572.535H489.002L490.769 576.016C491.164 576.789 491.498 577.053 492.122 577.053C492.799 577.053 493.3 576.596 493.3 575.954C493.3 575.699 493.221 575.4 493.089 575.163L491.349 571.973C492.685 571.41 493.467 570.197 493.467 568.677C493.467 566.409 491.876 565.003 489.31 565.003H486.242C484.994 565.003 484.449 565.565 484.449 566.813V575.805C484.449 576.613 484.889 577.088 485.645 577.088C486.392 577.088 486.822 576.613 486.822 575.805ZM486.822 570.76V566.945H488.993C490.303 566.945 491.085 567.64 491.085 568.861C491.085 570.092 490.312 570.76 488.967 570.76H486.822Z" fill="#1A202C"/>
<path d="M500.524 575.813H500.639V576.139C500.709 576.745 501.113 577.088 501.729 577.088C502.449 577.088 502.854 576.64 502.854 575.849V570.751C502.854 568.686 501.482 567.525 499.039 567.525C498.02 567.525 497.237 567.701 496.648 568.009C495.831 568.422 495.453 568.976 495.453 569.521C495.453 569.995 495.77 570.338 496.279 570.338C496.657 570.338 496.903 570.241 497.167 570.03C497.686 569.564 498.187 569.301 498.89 569.301C499.953 569.301 500.542 569.793 500.542 570.733V571.498H498.327C496.209 571.498 494.935 572.562 494.935 574.284C494.935 575.98 496.165 577.123 497.984 577.123C499.127 577.123 500.05 576.648 500.524 575.813ZM497.237 574.144C497.237 573.379 497.8 572.922 498.749 572.922H500.542V573.889C500.542 574.768 499.76 575.453 498.758 575.453C497.853 575.453 497.237 574.917 497.237 574.144Z" fill="#1A202C"/>
<path d="M513.286 575.822V570.751C513.286 568.703 512.161 567.525 510.175 567.525C508.804 567.525 507.758 568.211 507.397 569.318H507.283V568.747C507.257 568 506.853 567.587 506.158 567.587C505.455 567.587 505.016 568.062 505.016 568.826V575.813C505.016 576.631 505.438 577.088 506.176 577.088C506.914 577.088 507.336 576.631 507.336 575.813V571.814C507.336 570.364 508.092 569.477 509.296 569.477C510.368 569.477 510.975 570.162 510.975 571.384V575.813C510.975 576.631 511.388 577.088 512.135 577.088C512.873 577.088 513.286 576.64 513.286 575.822Z" fill="#1A202C"/>
<path d="M521.363 575.515H521.478V575.954C521.521 576.675 521.935 577.088 522.611 577.088C523.35 577.088 523.754 576.631 523.754 575.813V565.583C523.754 564.766 523.332 564.3 522.594 564.3C521.847 564.3 521.434 564.766 521.434 565.583V569.063H521.319C520.959 568.105 519.957 567.525 518.656 567.525C516.503 567.525 515.149 569.09 515.149 571.612V573.036C515.149 575.55 516.494 577.123 518.63 577.123C519.966 577.123 521.064 576.473 521.363 575.515ZM517.531 572.799V571.858C517.531 570.312 518.234 569.38 519.43 569.38C520.616 569.38 521.434 570.303 521.434 571.656V572.896C521.434 574.363 520.669 575.277 519.465 575.277C518.243 575.277 517.531 574.354 517.531 572.799Z" fill="#1A202C"/>
<path d="M530.003 567.473C527.454 567.473 525.696 569.081 525.696 571.771V572.869C525.696 575.629 527.454 577.202 530.003 577.202C532.543 577.202 534.301 575.629 534.301 572.86V571.762C534.301 569.081 532.543 567.473 530.003 567.473ZM530.003 569.274C531.207 569.274 531.919 570.241 531.919 571.814V572.852C531.919 574.442 531.207 575.4 530.003 575.4C528.816 575.4 528.078 574.442 528.078 572.852V571.814C528.078 570.241 528.816 569.274 530.003 569.274Z" fill="#1A202C"/>
<path d="M549.594 575.813V570.487C549.594 568.642 548.469 567.525 546.588 567.525C545.243 567.525 544.188 568.202 543.784 569.283H543.679C543.371 568.193 542.422 567.525 541.112 567.525C539.847 567.525 538.871 568.176 538.563 569.222H538.449V568.782C538.414 568.035 538.001 567.587 537.324 567.587C536.621 567.587 536.182 568.062 536.182 568.835V575.813C536.182 576.64 536.604 577.088 537.342 577.088C538.08 577.088 538.502 576.64 538.502 575.813V571.305C538.502 570.171 539.161 569.441 540.146 569.441C541.147 569.441 541.771 570.118 541.771 571.226V575.813C541.771 576.64 542.167 577.088 542.888 577.088C543.617 577.088 544.013 576.64 544.013 575.813V571.313C544.013 570.188 544.689 569.441 545.683 569.441C546.685 569.441 547.282 570.074 547.282 571.182V575.813C547.282 576.64 547.695 577.088 548.434 577.088C549.172 577.088 549.594 576.64 549.594 575.813Z" fill="#1A202C"/>
<path d="M553.083 577.088C553.795 577.088 554.243 576.657 554.243 575.813V565.583C554.243 564.739 553.795 564.3 553.083 564.3C552.362 564.3 551.923 564.739 551.923 565.583V575.813C551.923 576.657 552.362 577.088 553.083 577.088Z" fill="#1A202C"/>
<path d="M556.194 579.303C556.194 579.549 556.282 579.76 556.449 579.927C556.722 580.19 557.196 580.331 557.803 580.331C559.675 580.331 560.756 579.47 561.485 577.378L564.289 569.336C564.386 569.063 564.421 568.879 564.421 568.703C564.421 568.079 563.955 567.622 563.322 567.622C562.716 567.622 562.329 567.982 562.136 568.729L560.308 575.084H560.211L558.4 568.729C558.216 567.982 557.82 567.622 557.196 567.622C556.537 567.622 556.054 568.088 556.054 568.712C556.054 568.879 556.08 569.081 556.168 569.336L558.91 577.114C558.91 577.176 558.822 577.562 558.796 577.615C558.603 578.213 558.163 578.6 557.636 578.6C557.372 578.6 557.214 578.556 557.029 578.556C556.528 578.556 556.194 578.872 556.194 579.303Z" fill="#1A202C"/>
<path d="M88.5 63.5H367.5H646.5V290V479.5V668.5H367.5H88.5V479.5V290V63.5Z" stroke="#CBD5E0"/>
<defs>
<linearGradient id="paint0_linear" x1="227" y1="131" x2="227" y2="211" gradientUnits="userSpaceOnUse">
<stop stop-color="#AD85FF"/>
<stop offset="1" stop-color="#7E7AEA"/>
</linearGradient>
<linearGradient id="paint1_linear" x1="504" y1="100" x2="504" y2="180" gradientUnits="userSpaceOnUse">
<stop stop-color="#AD85FF"/>
<stop offset="1" stop-color="#7E7AEA"/>
</linearGradient>
<linearGradient id="paint2_linear" x1="227" y1="348" x2="227" y2="396" gradientUnits="userSpaceOnUse">
<stop stop-color="#AD85FF"/>
<stop offset="1" stop-color="#7E7AEA"/>
</linearGradient>
<linearGradient id="paint3_linear" x1="443" y1="359" x2="443" y2="407" gradientUnits="userSpaceOnUse">
<stop stop-color="#AD85FF"/>
<stop offset="1" stop-color="#7E7AEA"/>
</linearGradient>
<linearGradient id="paint4_linear" x1="459" y1="556" x2="459" y2="584" gradientUnits="userSpaceOnUse">
<stop stop-color="#AD85FF"/>
<stop offset="1" stop-color="#7E7AEA"/>
</linearGradient>
</defs>
</svg>
