<svg width="20" height="20" viewBox="0 0 20 20" fill="none" xmlns="http://www.w3.org/2000/svg">
<path d="M6.68402 11.342C6.88602 10.938 7.00002 10.482 7.00002 9.99999C7.00002 9.51799 6.88602 9.06199 6.68402 8.65799M6.68402 11.342C6.38172 11.9464 5.88422 12.431 5.27211 12.7174C4.66001 13.0037 3.96915 13.075 3.31146 12.9197C2.65378 12.7644 2.06779 12.3916 1.64843 11.8617C1.22907 11.3317 1.00092 10.6758 1.00092 9.99999C1.00092 9.32422 1.22907 8.66824 1.64843 8.13832C2.06779 7.60841 2.65378 7.2356 3.31146 7.08029C3.96915 6.92499 4.66001 6.99628 5.27211 7.28263C5.88422 7.56898 6.38172 8.0536 6.68402 8.65799M6.68402 11.342L13.316 14.658M6.68402 8.65799L13.316 5.34199M13.316 14.658C12.9601 15.3698 12.9015 16.1939 13.1532 16.9489C13.4049 17.704 13.9462 18.3281 14.658 18.684C15.3699 19.0399 16.1939 19.0985 16.949 18.8468C17.704 18.5951 18.3281 18.0538 18.684 17.342C19.0399 16.6302 19.0985 15.8061 18.8468 15.0511C18.5952 14.296 18.0539 13.6719 17.342 13.316C16.9895 13.1398 16.6058 13.0347 16.2127 13.0067C15.8197 12.9788 15.4249 13.0286 15.0511 13.1532C14.2961 13.4049 13.6719 13.9462 13.316 14.658ZM13.316 5.34199C13.4923 5.69439 13.7362 6.00863 14.0338 6.26677C14.3315 6.5249 14.6771 6.72188 15.0509 6.84645C15.4247 6.97102 15.8194 7.02074 16.2124 6.99278C16.6055 6.96482 16.9891 6.85973 17.3415 6.68349C17.6939 6.50726 18.0082 6.26334 18.2663 5.96566C18.5244 5.66798 18.7214 5.32238 18.846 4.94858C18.9705 4.57477 19.0203 4.1801 18.9923 3.78708C18.9643 3.39406 18.8593 3.01039 18.683 2.65799C18.3271 1.94628 17.703 1.40511 16.9481 1.15353C16.1932 0.901954 15.3692 0.960572 14.6575 1.31649C13.9458 1.67241 13.4046 2.29648 13.1531 3.05141C12.9015 3.80634 12.9601 4.63028 13.316 5.34199Z" stroke="#4A5568" stroke-width="2" stroke-linecap="round" stroke-linejoin="round"/>
</svg>
